<?xml version="1.0" encoding="UTF-8" standalone="no"?>
<!-- Generator: Adobe Illustrator 14.0.0, SVG Export Plug-In . SVG Version: 6.00 Build 43363)  -->

<svg
   xmlns:dc="http://purl.org/dc/elements/1.1/"
   xmlns:cc="http://creativecommons.org/ns#"
   xmlns:rdf="http://www.w3.org/1999/02/22-rdf-syntax-ns#"
   xmlns:svg="http://www.w3.org/2000/svg"
   xmlns="http://www.w3.org/2000/svg"
   xmlns:sodipodi="http://sodipodi.sourceforge.net/DTD/sodipodi-0.dtd"
   xmlns:inkscape="http://www.inkscape.org/namespaces/inkscape"
   version="1.1"
   id="Layer_1"
   x="0px"
   y="0px"
   width="33.044846"
   height="24.908457"
   viewBox="0 0 33.044846 24.908456"
   enable-background="new 0 0 300 300"
   xml:space="preserve"
   inkscape:version="0.91 r13725"
   sodipodi:docname="Cycling_(mountain_biking)_pictogram.svg"><metadata
     id="metadata21"><rdf:RDF><cc:Work
         rdf:about=""><dc:format>image/svg+xml</dc:format><dc:type
           rdf:resource="http://purl.org/dc/dcmitype/StillImage" /><dc:title></dc:title></cc:Work></rdf:RDF></metadata><defs
     id="defs19" /><sodipodi:namedview
     pagecolor="#ffffff"
     bordercolor="#666666"
     borderopacity="1"
     objecttolerance="10"
     gridtolerance="10"
     guidetolerance="10"
     inkscape:pageopacity="0"
     inkscape:pageshadow="2"
     inkscape:window-width="968"
     inkscape:window-height="662"
     id="namedview17"
     showgrid="false"
     fit-margin-top="0"
     fit-margin-left="0"
     fit-margin-right="0"
     fit-margin-bottom="0"
     inkscape:zoom="1.5733333"
     inkscape:cx="12.194282"
     inkscape:cy="46.952976"
     inkscape:window-x="210"
     inkscape:window-y="72"
     inkscape:window-maximized="0"
     inkscape:current-layer="Layer_1" /><g
     id="g3349"
     transform="matrix(0.11015169,0,0,0.09088654,0,-9.5367432e-7)"><path
       inkscape:connector-curvature="0"
       id="path3"
       d="m 168.853,80.849001 c 10.44,6.612 22.533,10.03 34.641,11.993 10.837,2.034 21.908,1.106 32.855,0.96 l 0.086,-1.26 c -7.41,-1.316 -15.237,-0.922 -22.236,-4.016 -8.462,-3.12 -16.445,-7.368 -24.201,-11.935 -7.396,-4.613 -13.729,-10.942 -18.209,-18.429 -2.814,-5.235 -5.331,-10.67 -8.793,-15.525 -2.416,-3.276 -6.133,-5.256 -10.041,-6.151 -3.9,1.224 -9.099,2.398 -10.047,7.097 -1.16,6.084 2.51,11.683 5.663,16.567 5.607,7.902 12.353,15.089 20.282,20.699 z" /><path
       inkscape:connector-curvature="0"
       id="path5"
       d="m 109.373,158.817 c 5.532,21.808 10.904,43.686 18.252,64.973 0.53,1.463 1.042,3.064 2.458,3.927 0.5,-9.699 -0.53,-19.371 -0.919,-29.054 -1.279,-25.893 -2.76,-51.783 -5.392,-77.578 -0.957,-10.313 -1.247,-21.278999 -6.646,-30.447999 -2.065,-3.688 -6.012,-5.771 -10.099,-6.325 -2.795,1.514 -5.699,3.182 -7.328,6.033 -4.025,6.285 -3.007,14.196999 -1.548,21.124999 3.65,15.803 6.687,31.761 11.222,47.347 z" /><path
       inkscape:connector-curvature="0"
       id="path7"
       d="m 133.37,108.327 c 7.828,4.326 16.352,7.255 24.876,9.882 -2.247,6.843 -6.546,12.74 -9.354,19.341 -3.991,7.975 -7.524,16.179 -11.895,23.955 -1.501,2.879 -3.117,5.89 -2.95,9.244 2.269,-0.396 3.791,-2.205 5.325,-3.752 7.695,-8.285 15.567,-16.4 23.595,-24.364 6.078,-6.28 12.07,-13.292 14.063,-22.036 2.411,-7.565 -2.462,-15.172 -8.291,-19.652 -6.683,-4.763999 -13.532,-9.497999 -21.227,-12.479999 -5.757,-2.26 -12.027,-2.28 -18.116,-2.23 -2.776,2.818 -5.721,6.221 -5.348,10.475 0.027,5.555999 5.155,8.925999 9.322,11.616999 z" /><path
       inkscape:connector-curvature="0"
       id="path9"
       d="m 230.051,111.626 c -8.396,0.896 -16.465,4.073 -23.441,8.789 -17.325,11.582 -28.385,31.535 -29.961,52.21 -0.521,10.833 0.953,22.092 6.639,31.526 5.787,10.883 16.563,18.967 28.73,21.156 2.479,0.405 4.979,0.604 7.484,0.604 8.501,0 17.004,-2.277 24.428,-6.423 25.202,-14.051 39.611,-45.725 32.377,-73.837 -3.074,-13.202 -12,-25.104 -24.467,-30.715 -5.535,-2.025 -11.41,-3.634 -17.33,-3.634 -1.485,10e-4 -2.974,0.102 -4.459,0.324 z m 19.517,8.872 c 10.168,4.659 18.164,14.798 20.894,26.518 l 0.017,0.066 0.019,0.066 c 3.142,12.21 1.828,25.8 -3.699,38.265 -5.491,12.387 -14.649,22.627 -25.793,28.839 -6.631,3.703 -14.065,5.661 -21.502,5.661 -2.185,0 -4.36,-0.174 -6.472,-0.518 -10.139,-1.842 -19.501,-8.759 -24.447,-18.062 l -0.074,-0.142 -0.084,-0.139 c -4.375,-7.263 -6.322,-16.702 -5.789,-28.058 1.483,-19.091 11.941,-37.323 27.332,-47.612 6.418,-4.338 13.582,-7.033 20.721,-7.794 l 0.123,-0.013 0.123,-0.02 c 1.146,-0.171 2.35,-0.257 3.576,-0.257 0,0 0,0 0.002,0 4.269,0.005 9.059,1.02 15.053,3.2 z" /><path
       inkscape:connector-curvature="0"
       id="path11"
       d="m 35.798,253.693 c 5.534,2.497 11.555,3.676 17.597,3.676 7.649,0 15.332,-1.891 22.1,-5.385 23.965,-12.084 38.475,-39.779 35.883,-66.329 -1.163,-13.169 -7.266,-26.312 -17.949,-34.396 -7.152,-5.561 -16.201,-8.39 -25.232,-8.39 -2.546,0 -5.093,0.226 -7.595,0.677 -13,2.195 -24.541,9.816 -33.15,19.597 -9.34,9.948 -14.603,23.067 -16.875,36.383 -1.309,12.551 -0.15,25.942 6.658,36.884 4.039,7.661 11.05,13.259 18.563,17.283 z M 16.526,200.342 c 2.33,-13.47 7.619,-24.907 15.302,-33.093 l 0.066,-0.069 0.063,-0.07 c 8.427,-9.575 18.956,-15.841 29.645,-17.646 l 0.035,-0.006 0.035,-0.006 c 2.133,-0.386 4.329,-0.582 6.526,-0.582 0.001,0 0.001,0 0.002,0 7.983,0 15.636,2.531 21.547,7.126 l 0.031,0.022 0.031,0.022 c 8.678,6.568 14.507,17.835 15.594,30.141 l 0.002,0.027 0.002,0.027 c 1.148,11.757 -1.444,24.248 -7.299,35.172 -5.897,11.004 -14.887,19.96 -25.313,25.217 l -0.026,0.014 -0.026,0.015 c -5.974,3.085 -12.664,4.716 -19.347,4.716 -5.343,0 -10.371,-1.03 -14.947,-3.063 -7.569,-4.088 -12.92,-9.03 -15.906,-14.694 l -0.1,-0.189 -0.113,-0.183 c -5.223,-8.395 -7.176,-19.463 -5.804,-32.898 z" /><path
       inkscape:connector-curvature="0"
       id="path13"
       d="m 285.728,197.358 c -3.731,4.563 -6.582,10.008 -11.424,13.554 -3.625,2.299 -7.961,3.199 -11.502,5.658 -6.129,4.204 -12.268,8.391 -18.39,12.603 -1.802,1.334 -3.983,1.95 -6.156,2.347 -12.161,2.189 -25.142,-1.493 -36.786,3.67 -7.443,2.765 -13.693,8.252 -21.578,9.858 -15.699,3.731 -31.389,-4.862 -47.129,-1.298 -15.027,2.779 -25.22,15.886 -39.794,19.773 -3.529,1.017 -7.283,1.568 -10.927,0.863 -6.993,-1.228 -14.096,-1.515 -21.117,-2.521 -10.628,-0.988 -21.27,-2.359 -31.967,-1.956 C 18.947,259.99 9.057,262.58 0,266.771 l 0,7.29 c 12.489,-7.704 27.78,-9.022 42.104,-7.787 11.656,1.12 23.332,2.104 34.94,3.657 4.995,0.9 10.14,1.312 15.132,0.123 15.823,-2.86 26.619,-16.973 42.239,-20.34 10.266,-2.172 20.36,1.566 30.571,2.173 5.679,0.245 11.506,0.579 17.033,-1.03 9.722,-2.199 17.334,-9.655 27.15,-11.568 10.982,-2.432 22.471,0.56 33.373,-2.457 4.51,-1.068 7.896,-4.416 11.689,-6.854 5.9,-3.829 11.242,-8.702 17.984,-11.057 7.739,-2.598 12.576,-9.595 16.998,-16.009 2.576,-3.854 6.785,-6.002 10.781,-8.065 l 0,-6.729 c -5.18,2.308 -10.521,4.822 -14.266,9.24 z" /><circle
       id="circle15"
       r="22"
       cy="22"
       cx="187.965" /></g></svg>