<?xml version="1.0" encoding="UTF-8" standalone="no"?>
<svg
   xmlns:dc="http://purl.org/dc/elements/1.1/"
   xmlns:cc="http://creativecommons.org/ns#"
   xmlns:rdf="http://www.w3.org/1999/02/22-rdf-syntax-ns#"
   xmlns:svg="http://www.w3.org/2000/svg"
   xmlns="http://www.w3.org/2000/svg"
   xmlns:sodipodi="http://sodipodi.sourceforge.net/DTD/sodipodi-0.dtd"
   xmlns:inkscape="http://www.inkscape.org/namespaces/inkscape"
   version="1.1"
   viewBox="0 0 31.016948 28.474575"
   id="svg2"
   xml:space="preserve"
   inkscape:version="0.91 r13725"
   sodipodi:docname="fireworks-blue.svg"
   width="14.73305"
   height="13.525423"><metadata
     id="metadata37"><rdf:RDF><cc:Work
         rdf:about=""><dc:format>image/svg+xml</dc:format><dc:type
           rdf:resource="http://purl.org/dc/dcmitype/StillImage" /><dc:title></dc:title></cc:Work></rdf:RDF></metadata><sodipodi:namedview
     pagecolor="#ffffff"
     bordercolor="#666666"
     borderopacity="1"
     objecttolerance="10"
     gridtolerance="10"
     guidetolerance="10"
     inkscape:pageopacity="0"
     inkscape:pageshadow="2"
     inkscape:window-width="1064"
     inkscape:window-height="756"
     id="namedview35"
     showgrid="false"
     fit-margin-top="0"
     fit-margin-left="0"
     fit-margin-right="0"
     fit-margin-bottom="0"
     inkscape:zoom="4.9684211"
     inkscape:cx="23.15625"
     inkscape:cy="-9.6308252"
     inkscape:window-x="180"
     inkscape:window-y="70"
     inkscape:window-maximized="0"
     inkscape:current-layer="svg2" /><defs
     id="defs6"><clipPath
       id="clipPath18"><path
         d="M 0,38 38,38 38,0 0,0 0,38 Z"
         id="path20"
         inkscape:connector-curvature="0" /></clipPath></defs><g
     transform="matrix(0.86158192,0,0,-0.79096045,-0.86158192,29.265537)"
     id="g12"><g
       id="g14"><g
         clip-path="url(#clipPath18)"
         id="g16"><g
           transform="translate(37,5)"
           id="g22"><path
             d="m 0,0 c 0,-2.209 -1.791,-4 -4,-4 l -28,0 c -2.209,0 -4,1.791 -4,4 l 0,28 c 0,2.209 1.791,4 4,4 l 28,0 c 2.209,0 4,-1.791 4,-4 L 0,0 Z"
             id="path24"
             style="fill:#226699;fill-opacity:1;fill-rule:nonzero;stroke:none"
             inkscape:connector-curvature="0" /></g><g
           transform="translate(19,34.751)"
           id="g26"><path
             d="M 0,0 3.751,-3.751 9,-3.751 9,-9 12.751,-12.751 9,-16.502 l 0,-5.249 -5.249,0 -3.751,-3.751 -3.751,3.751 -5.249,0 0,5.249 -3.751,3.751 L -9,-9 l 0,5.249 5.249,0 L 0,0 Z"
             id="path28"
             style="fill:#55acee;fill-opacity:1;fill-rule:nonzero;stroke:none"
             inkscape:connector-curvature="0" /></g><g
           transform="translate(16,22)"
           id="g30"><path
             d="M 0,0 Z"
             id="path32"
             style="fill:#ffd983;fill-opacity:1;fill-rule:nonzero;stroke:none"
             inkscape:connector-curvature="0" /></g><g
           transform="translate(19,32.4063)"
           id="g34"><path
             d="m 0,0 2.234,-5.069 4.852,1.417 -1.418,-4.851 6.486,-2.235 -6.486,-2.235 1.418,-4.85 -4.852,1.417 L 0,-28.561 l -2.235,12.155 -4.85,-1.417 1.417,4.85 -6.487,2.235 6.487,2.235 -1.417,4.851 4.85,-1.417 L 0,0 Z"
             id="path36"
             style="fill:#ffd983;fill-opacity:1;fill-rule:nonzero;stroke:none"
             inkscape:connector-curvature="0" /></g><g
           transform="translate(22,22)"
           id="g38"><path
             d="m 0,0 c 0,-1.657 -1.343,-3 -3,-3 -1.657,0 -3,1.343 -3,3 0,1.657 1.343,3 3,3 1.657,0 3,-1.343 3,-3"
             id="path40"
             style="fill:#f5f8fa;fill-opacity:1;fill-rule:nonzero;stroke:none"
             inkscape:connector-curvature="0" /></g><g
           transform="translate(10.999,24)"
           id="g42"><path
             d="m 0,0 c -0.19,0 -0.383,0.054 -0.554,0.168 l -6,4 c -0.459,0.306 -0.583,0.927 -0.277,1.387 0.306,0.46 0.927,0.584 1.387,0.277 l 6,-4 C 1.015,1.526 1.139,0.905 0.833,0.445 0.64,0.156 0.323,0 0,0"
             id="path44"
             style="fill:#ffcc4d;fill-opacity:1;fill-rule:nonzero;stroke:none"
             inkscape:connector-curvature="0" /></g><g
           transform="translate(27.001,24)"
           id="g46"><path
             d="m 0,0 c -0.323,0 -0.641,0.156 -0.833,0.445 -0.307,0.46 -0.183,1.081 0.277,1.387 l 6,4 C 5.904,6.139 6.525,6.015 6.831,5.555 7.138,5.095 7.014,4.474 6.554,4.168 l -6,-4 C 0.383,0.054 0.19,0 0,0"
             id="path48"
             style="fill:#ffcc4d;fill-opacity:1;fill-rule:nonzero;stroke:none"
             inkscape:connector-curvature="0" /></g><g
           transform="translate(5.001,13)"
           id="g50"><path
             d="m 0,0 c -0.323,0 -0.64,0.156 -0.833,0.445 -0.306,0.46 -0.182,1.08 0.277,1.387 l 6,4 C 5.904,6.14 6.524,6.015 6.831,5.555 7.137,5.095 7.013,4.475 6.554,4.168 l -6,-4 C 0.383,0.055 0.19,0 0,0"
             id="path52"
             style="fill:#ffcc4d;fill-opacity:1;fill-rule:nonzero;stroke:none"
             inkscape:connector-curvature="0" /></g><g
           transform="translate(33.999,13)"
           id="g54"><path
             d="m 0,0 c -0.168,0 -0.339,0.042 -0.495,0.132 l -7,4 c -0.48,0.274 -0.647,0.885 -0.372,1.364 0.273,0.48 0.884,0.647 1.364,0.372 l 7,-4 C 0.977,1.594 1.144,0.983 0.869,0.504 0.685,0.181 0.348,0 0,0"
             id="path56"
             style="fill:#ffcc4d;fill-opacity:1;fill-rule:nonzero;stroke:none"
             inkscape:connector-curvature="0" /></g><g
           transform="translate(10.9995,3)"
           id="g58"><path
             d="m 0,0 c -0.136,0 -0.273,0.027 -0.406,0.086 -0.504,0.225 -0.732,0.815 -0.507,1.32 l 4,9 c 0.224,0.504 0.814,0.733 1.32,0.508 0.504,-0.225 0.732,-0.815 0.507,-1.32 l -4,-9 C 0.749,0.222 0.383,0 0,0"
             id="path60"
             style="fill:#ffcc4d;fill-opacity:1;fill-rule:nonzero;stroke:none"
             inkscape:connector-curvature="0" /></g><g
           transform="translate(27.001,3)"
           id="g62"><path
             d="m 0,0 c -0.384,0 -0.749,0.221 -0.915,0.594 l -4,9 c -0.224,0.505 0.003,1.095 0.508,1.32 0.506,0.224 1.095,-0.004 1.32,-0.508 l 4,-9 C 1.137,0.901 0.91,0.311 0.405,0.086 0.273,0.027 0.136,0 0,0"
             id="path64"
             style="fill:#ffcc4d;fill-opacity:1;fill-rule:nonzero;stroke:none"
             inkscape:connector-curvature="0" /></g><g
           transform="translate(16.001,29)"
           id="g66"><path
             d="m 0,0 c -0.367,0 -0.72,0.202 -0.896,0.553 l -2,4 c -0.247,0.494 -0.046,1.094 0.448,1.342 0.494,0.247 1.094,0.046 1.342,-0.448 l 2,-4 C 1.141,0.953 0.94,0.353 0.446,0.105 0.303,0.034 0.15,0 0,0"
             id="path68"
             style="fill:#ffcc4d;fill-opacity:1;fill-rule:nonzero;stroke:none"
             inkscape:connector-curvature="0" /></g><g
           transform="translate(21.999,29)"
           id="g70"><path
             d="M 0,0 C -0.15,0 -0.303,0.034 -0.446,0.105 -0.94,0.353 -1.141,0.953 -0.894,1.447 l 2,4 C 1.354,5.942 1.953,6.142 2.448,5.895 2.942,5.647 3.143,5.047 2.896,4.553 l -2,-4 C 0.72,0.202 0.367,0 0,0"
             id="path72"
             style="fill:#ffcc4d;fill-opacity:1;fill-rule:nonzero;stroke:none"
             inkscape:connector-curvature="0" /></g></g></g></g></svg>