<?xml version="1.0" encoding="UTF-8" standalone="no"?>
<svg
   xmlns:dc="http://purl.org/dc/elements/1.1/"
   xmlns:cc="http://creativecommons.org/ns#"
   xmlns:rdf="http://www.w3.org/1999/02/22-rdf-syntax-ns#"
   xmlns:svg="http://www.w3.org/2000/svg"
   xmlns="http://www.w3.org/2000/svg"
   xmlns:sodipodi="http://sodipodi.sourceforge.net/DTD/sodipodi-0.dtd"
   xmlns:inkscape="http://www.inkscape.org/namespaces/inkscape"
   id="Sinnbild_Wanderer"
   width="35.762711"
   height="26.694916"
   viewBox="0 0 35.762711 26.694916"
   version="1.1"
   inkscape:version="0.91 r13725"
   sodipodi:docname="hke-icon.svg">
  <metadata
     id="metadata8">
    <rdf:RDF>
      <cc:Work
         rdf:about="">
        <dc:format>image/svg+xml</dc:format>
        <dc:type
           rdf:resource="http://purl.org/dc/dcmitype/StillImage" />
        <dc:title></dc:title>
      </cc:Work>
    </rdf:RDF>
  </metadata>
  <defs
     id="defs6" />
  <sodipodi:namedview
     pagecolor="#ffffff"
     bordercolor="#666666"
     borderopacity="1"
     objecttolerance="10"
     gridtolerance="10"
     guidetolerance="10"
     inkscape:pageopacity="0"
     inkscape:pageshadow="2"
     inkscape:window-width="756"
     inkscape:window-height="480"
     id="namedview4"
     showgrid="false"
     fit-margin-top="0"
     fit-margin-left="0"
     fit-margin-right="0"
     fit-margin-bottom="0"
     inkscape:zoom="2.2250293"
     inkscape:cx="14.679281"
     inkscape:cy="7.0983071"
     inkscape:window-x="287"
     inkscape:window-y="162"
     inkscape:window-maximized="0"
     inkscape:current-layer="Sinnbild_Wanderer" />
  <g
     id="g3336"
     transform="scale(0.12331969,0.08898305)">
    <path
       d="m 94.5637,183.04721 -22.01295,40.1651 38.5284,71.09509 -10.54389,5.56416 -34.85065,-63.73007 -27.99215,51.25495 -0.47406,1.37758 -3.67775,4.63295 -2.26322,1.83164 -2.30146,1.38527 -2.75258,1.38526 c -6.69028,3.09377 -14.6651,2.33957 -21.1107199,-0.90812 L 51.9141,210.7372 11.53535,136.39443 c -6.0097899,0.98508 -12.24894992,-5.14089 -11.46905992,-11.06676 0.2982,-3.00911 1.69742002,-5.97975 4.12121002,-7.84216 L 76.22086,62.982867 l 1.37628,-0.938905 3.19605,-1.831633 2.77551,-1.385269 3.19604,-0.931209 3.22663,-0.446364 3.67775,-0.484845 3.19604,0 3.22663,0.484845 3.19605,0.931208 6.41502,2.762842 4.12122,2.770538 33.96371,29.098345 c 4.06005,2.524268 5.82629,7.9653 6.42267,12.44433 0.50464,19.66313 5.22225,44.97507 -20.6443,47.56091 l 0,-45.24443 -15.13916,-12.475116 0,69.740596 -48.1777,0 0,-71.125865 -48.1777,36.494145 36.70864,67.88587 10.10041,-18.49334 0.44348,-0.44636 0.48169,-1.38527 0.44348,-0.93121 0,-6.01053 48.1777,0 0,4.62526 0.45111,1.38527 0.47406,0.93121 0,1.38527 0.45112,0.44636 34.40717,63.28371 34.40719,-63.28371 0.44347,-0.44636 0.4817,-1.38527 0.44347,-0.93121 0,-2.31648 0.48169,-0.90042 0,-2.79363 47.69601,0 c -0.26762,2.40114 0.12234,4.62526 0.45111,6.94174 17.14243,31.20703 40.82987,61.83687 50.92264,96.49938 2.05678,9.6507 -2.89786,21.2254 -11.92018,25.40429 l -63.31686,-116.82435 -46.32736,85.40953 1.37628,4.17889 0.45112,2.76285 0.47406,2.76284 0,2.77054 -0.47406,2.76284 c -2.59965,8.24235 -4.51116,11.51312 -11.92018,16.17686 l -4.12121,-6.94943 c -7.8219,7.48815 -19.02335,9.289 -28.46621,4.17889 L 140.43995,268.45674 94.5637,183.04721 Z m 95.90428,-18.0085 47.69601,0 0,-51.25495 32.10572,51.25495 c 5.94862,-3.84797 9.85574,-10.82049 9.6493,-18.0085 0.45112,-6.07209 -1.67448,-6.78781 -3.22662,-11.08984 l -42.1985,-67.878184 -0.92517,-0.931208 -1.82741,-2.285694 -1.85033,-1.862417 -2.27088,-1.83933 c -8.15068,-4.956184 -18.36579,-5.771954 -26.60823,-0.477148 -4.51116,3.301558 -6.03272,5.918177 -8.72412,10.643483 l -0.92517,2.762842 -0.8946,2.762842 0,42.927944 -30.28596,30.03725 c 9.1676,8.38858 21.3554,8.08843 30.28596,-0.48484 l 0,15.7228 z M 106.50682,24.195334 C 105.22228,-6.4960701 62.66443,-8.9279871 58.33676,22.332917 c 0.23703,33.192585 45.90683,34.485503 48.17006,1.862417 z m 122.48957,0 c -0.71873,-30.5374851 -43.90357,-33.2772391 -47.72659,-1.862417 -0.54287,32.977098 46.08268,34.54707 47.72659,1.862417"
       id="Wanderer"
       inkscape:connector-curvature="0"
       style="fill:#000000" />
  </g>
</svg>
