<?xml version="1.0" encoding="UTF-8" standalone="no"?>
<!-- Created with Inkscape (http://www.inkscape.org/) -->

<svg
   xmlns:dc="http://purl.org/dc/elements/1.1/"
   xmlns:cc="http://creativecommons.org/ns#"
   xmlns:rdf="http://www.w3.org/1999/02/22-rdf-syntax-ns#"
   xmlns:svg="http://www.w3.org/2000/svg"
   xmlns="http://www.w3.org/2000/svg"
   xmlns:sodipodi="http://sodipodi.sourceforge.net/DTD/sodipodi-0.dtd"
   xmlns:inkscape="http://www.inkscape.org/namespaces/inkscape"
   width="4.8197904mm"
   height="5.3038015mm"
   viewBox="0 0 17.077998 18.792997"
   id="svg3442"
   version="1.1"
   inkscape:version="0.91 r13725"
   sodipodi:docname="maple-leaf-small.svg">
  <defs
     id="defs3444" />
  <sodipodi:namedview
     id="base"
     pagecolor="#ffffff"
     bordercolor="#666666"
     borderopacity="1.0"
     inkscape:pageopacity="0.0"
     inkscape:pageshadow="2"
     inkscape:zoom="22.34989"
     inkscape:cx="8.538999"
     inkscape:cy="9.3964989"
     inkscape:document-units="px"
     inkscape:current-layer="layer1"
     showgrid="false"
     fit-margin-top="0"
     fit-margin-left="0"
     fit-margin-right="0"
     fit-margin-bottom="0"
     inkscape:window-width="1416"
     inkscape:window-height="760"
     inkscape:window-x="55"
     inkscape:window-y="0"
     inkscape:window-maximized="0" />
  <metadata
     id="metadata3447">
    <rdf:RDF>
      <cc:Work
         rdf:about="">
        <dc:format>image/svg+xml</dc:format>
        <dc:type
           rdf:resource="http://purl.org/dc/dcmitype/StillImage" />
        <dc:title></dc:title>
      </cc:Work>
    </rdf:RDF>
  </metadata>
  <g
     inkscape:label="Layer 1"
     inkscape:groupmode="layer"
     id="layer1"
     transform="translate(-265.74671,-597.25142)">
    <path
       inkscape:connector-curvature="0"
       style="clip-rule:evenodd;fill:#ef3e42;fill-rule:evenodd"
       d="m 272.83071,600.30942 1.492,-3.058 1.492,2.908 c 0.223,0.373 0.371,0.299 0.67,0.149 l 1.268,-0.597 -0.82,4.102 c -0.223,0.82 0.299,1.044 0.746,0.522 l 1.865,-1.939 0.521,1.118 c 0.148,0.299 0.371,0.225 0.672,0.225 l 1.938,-0.448 -0.67,2.387 0,0.075 c -0.076,0.298 -0.225,0.597 0.148,0.746 l 0.672,0.297 -3.953,3.356 c -0.373,0.373 -0.225,0.522 -0.076,0.97 l 0.375,1.118 -3.656,-0.671 c -0.447,-0.074 -0.744,-0.074 -0.818,0.299 l 0.148,4.176 -1.045,0 0.15,-4.176 c 0,-0.447 -0.373,-0.447 -1.045,-0.299 l -3.43,0.671 0.447,-1.118 c 0.148,-0.373 0.223,-0.671 -0.148,-0.97 l -4.027,-3.281 0.746,-0.447 c 0.223,-0.149 0.223,-0.373 0.148,-0.671 l -0.746,-2.462 1.939,0.374 c 0.521,0.148 0.67,0 0.82,-0.299 l 0.521,-1.044 1.865,2.088 c 0.373,0.447 0.82,0.149 0.67,-0.373 l -0.895,-4.549 1.416,0.82 c 0.225,0.149 0.449,0.224 0.598,-0.075 l 0,0.076 0.002,0 z"
       id="path10-2" />
  </g>
</svg>
