<?xml version="1.0" encoding="UTF-8" standalone="no"?>
<!-- Generator: Adobe Illustrator 14.0.0, SVG Export Plug-In . SVG Version: 6.00 Build 43363)  -->

<svg
   xmlns:dc="http://purl.org/dc/elements/1.1/"
   xmlns:cc="http://creativecommons.org/ns#"
   xmlns:rdf="http://www.w3.org/1999/02/22-rdf-syntax-ns#"
   xmlns:svg="http://www.w3.org/2000/svg"
   xmlns="http://www.w3.org/2000/svg"
   xmlns:sodipodi="http://sodipodi.sourceforge.net/DTD/sodipodi-0.dtd"
   xmlns:inkscape="http://www.inkscape.org/namespaces/inkscape"
   version="1.1"
   id="Layer_1"
   x="0px"
   y="0px"
   width="34.596401"
   height="20.430086"
   viewBox="0 0 34.596401 20.430086"
   enable-background="new 0 0 300 300"
   xml:space="preserve"
   inkscape:version="0.91 r13725"
   sodipodi:docname="rowing-icon.svg"><metadata
     id="metadata13"><rdf:RDF><cc:Work
         rdf:about=""><dc:format>image/svg+xml</dc:format><dc:type
           rdf:resource="http://purl.org/dc/dcmitype/StillImage" /><dc:title></dc:title></cc:Work></rdf:RDF></metadata><defs
     id="defs11" /><sodipodi:namedview
     pagecolor="#ffffff"
     bordercolor="#666666"
     borderopacity="1"
     objecttolerance="10"
     gridtolerance="10"
     guidetolerance="10"
     inkscape:pageopacity="0"
     inkscape:pageshadow="2"
     inkscape:window-width="1050"
     inkscape:window-height="626"
     id="namedview9"
     showgrid="false"
     fit-margin-top="0"
     fit-margin-left="0"
     fit-margin-right="0"
     fit-margin-bottom="0"
     inkscape:zoom="4.4500587"
     inkscape:cx="3.8125593"
     inkscape:cy="6.6808662"
     inkscape:window-x="161"
     inkscape:window-y="30"
     inkscape:window-maximized="0"
     inkscape:current-layer="Layer_1" /><g
     id="g3341"
     transform="matrix(0.11532172,0,0,0.10238951,-1.1532172e-4,-10.28687)"><path
       id="path3"
       d="m 300,225.381 0,-6 c -9.964,-0.039 -19.928,0.082 -29.89,-0.07 -8.115,-10.576 -16.029,-21.457 -25.891,-30.504 -6.438,-5.453 -14.223,-11.277 -23.178,-10 -13.316,0.927 -23.808,10.768 -30.954,21.295 -9.226,-12.051 -18.439,-24.113 -27.804,-36.056 17.198,2.079 34.41,4.134 51.719,5.012 12.004,0.621 23.981,1.607 35.967,2.477 5.927,0.139 12.258,0.95 17.765,-1.79 4.014,-1.78 6.211,-6.302 6.086,-10.548 -2.939,-7.852 -12.548,-9.002 -19.791,-8.152 -29.922,0.46 -59.578,4.976 -89.414,6.855 -6.41,0.803 -13.174,0.01 -19.233,2.631 3.371,1.602 8.033,1.319 10.171,4.84 10.301,13.56 20.804,26.97 31.11,40.53 -2.294,4.645 -4.648,9.262 -6.95,13.904 -16.243,-0.08 -32.507,0.227 -48.737,-0.141 -3.378,-3.168 -5.641,-7.328 -8.656,-10.827 -8.394,-10.286 -16.924,-21.327 -29.17,-27.213 -5.753,-2.997 -12.578,-2.109 -18.557,-0.329 -10.445,3.514 -18.27,11.952 -24.212,20.914 -10.057,-12.738 -19.998,-25.568 -30.078,-38.287 12.552,1.379 25.078,2.983 37.666,4.006 12.954,1.129 25.963,1.453 38.919,2.568 9.053,0.521 18.12,1.735 27.199,1.006 4.339,-0.342 8.767,-2.676 10.63,-6.76 0.986,-2.316 1.871,-5.302 0.103,-7.48 -2.725,-4.298 -7.929,-6.107 -12.8,-6.338 -33.153,0.062 -66.033,4.994 -99.083,7.054 -6.189,0.749 -12.732,-0.021 -18.559,2.579 2.355,0.829 4.753,1.533 7.173,2.147 11.703,15.229 23.687,30.246 35.488,45.4 -2.047,3.958 -3.724,8.133 -6.148,11.882 -13.608,0.617 -27.262,0.327 -40.89,0.396 l 0,5.8 c 20.334,0.108 40.687,-0.214 61.009,0.153 2.448,2.147 4.147,5.001 6.213,7.498 17.33,22.043 34.559,44.17 51.945,66.168 l 4.964,0 c 0.387,-0.411 1.162,-1.23 1.55,-1.642 -18.748,-24.139 -37.691,-48.138 -56.554,-72.19 15.296,-0.114 30.605,0.347 45.889,-0.352 28.982,-0.001 57.969,0.062 86.947,-0.132 19.015,24.803 38.138,49.521 57.163,74.314 l 4.961,0 c 0.422,-0.402 1.264,-1.209 1.685,-1.611 -18.666,-24.272 -37.326,-48.556 -56.05,-72.785 30.095,0.193 60.183,-0.2 90.277,-0.222 z M 64.883,220.082 c -2.427,-1.827 -3.954,-4.559 -5.881,-6.861 6.604,-6.652 13.954,-12.92 22.85,-16.229 9.045,5.363 14.851,14.469 20.28,23.184 -12.416,-0.063 -24.839,0.145 -37.249,-0.094 z m 125.775,-0.471 c 1.284,-1.172 2.555,-2.359 3.817,-3.554 0.964,1.188 1.929,2.38 2.914,3.556 -2.244,-0.004 -4.489,-0.002 -6.731,-0.002 z m 14.717,-0.136 c -2.594,-2.387 -4.406,-5.461 -6.549,-8.229 6.551,-5.984 13.378,-12.367 22.012,-15.057 9.44,5.065 14.928,14.835 20.719,23.453 -12.059,-0.16 -24.135,0.197 -36.182,-0.167 z"
       inkscape:connector-curvature="0" /><circle
       id="circle5"
       r="21.875"
       cy="122.343"
       cx="241.463" /><circle
       id="circle7"
       r="21.875"
       cy="122.346"
       cx="103.46" /></g></svg>