<?xml version="1.0" encoding="UTF-8" standalone="no"?>
<!-- Created with Inkscape (http://www.inkscape.org/) -->

<svg
   xmlns:dc="http://purl.org/dc/elements/1.1/"
   xmlns:cc="http://creativecommons.org/ns#"
   xmlns:rdf="http://www.w3.org/1999/02/22-rdf-syntax-ns#"
   xmlns:svg="http://www.w3.org/2000/svg"
   xmlns="http://www.w3.org/2000/svg"
   xmlns:sodipodi="http://sodipodi.sourceforge.net/DTD/sodipodi-0.dtd"
   xmlns:inkscape="http://www.inkscape.org/namespaces/inkscape"
   width="19.788633"
   height="22.362642"
   viewBox="0 0 2.6594249 2.1249948"
   id="svg3394"
   version="1.1"
   inkscape:version="0.91 r13725"
   sodipodi:docname="share-icon.svg">
  <defs
     id="defs3396" />
  <sodipodi:namedview
     id="base"
     pagecolor="#ffffff"
     bordercolor="#666666"
     borderopacity="1.0"
     inkscape:pageopacity="0.0"
     inkscape:pageshadow="2"
     inkscape:zoom="2.8284271"
     inkscape:cx="45.909028"
     inkscape:cy="0.005710071"
     inkscape:document-units="px"
     inkscape:current-layer="layer1"
     showgrid="false"
     inkscape:window-width="1408"
     inkscape:window-height="897"
     inkscape:window-x="60"
     inkscape:window-y="0"
     inkscape:window-maximized="0"
     units="px"
     fit-margin-top="0"
     fit-margin-left="0"
     fit-margin-right="0"
     fit-margin-bottom="0" />
  <metadata
     id="metadata3399">
    <rdf:RDF>
      <cc:Work
         rdf:about="">
        <dc:format>image/svg+xml</dc:format>
        <dc:type
           rdf:resource="http://purl.org/dc/dcmitype/StillImage" />
        <dc:title></dc:title>
      </cc:Work>
    </rdf:RDF>
  </metadata>
  <g
     inkscape:label="Layer 1"
     inkscape:groupmode="layer"
     id="layer1"
     transform="translate(-3.981022,-127.6482)">
    <path
       inkscape:connector-curvature="0"
       class="st2"
       d="m 6.0876117,129.27741 c -0.1163862,0 -0.2240435,0.0297 -0.3142428,0.0815 l -0.7186851,-0.48155 c 0.023277,-0.0518 0.034916,-0.10866 0.034916,-0.16545 0,-0.0593 -0.014549,-0.11853 -0.037825,-0.1704 l 0.7099561,-0.484 c 0.090199,0.0568 0.203676,0.0889 0.3258815,0.0889 0.3055138,0 0.5528347,-0.20991 0.5528347,-0.4692 0,-0.25929 -0.2473209,-0.46919 -0.5528347,-0.46919 -0.305514,0 -0.5528346,0.2099 -0.5528346,0.46919 0,0.0544 0.011639,0.10619 0.029097,0.1531 l -0.7215946,0.49143 c -0.08729,-0.0494 -0.194947,-0.079 -0.3084236,-0.079 -0.3055138,0 -0.5528346,0.20991 -0.5528346,0.4692 0,0.25929 0.2473208,0.4692 0.5528346,0.4692 0.1163863,0 0.2240436,-0.0297 0.3142429,-0.0815 l 0.718685,0.47908 c -0.023277,0.0518 -0.034916,0.10866 -0.034916,0.16545 0,0.2593 0.2473209,0.4692 0.5528347,0.4692 0.3055139,0 0.5528347,-0.2099 0.5528347,-0.4692 0.00582,-0.25682 -0.2444112,-0.46673 -0.549925,-0.46673 z"
       id="path15" />
  </g>
</svg>
