<?xml version="1.0" encoding="UTF-8" standalone="no"?>
<svg
   xmlns:dc="http://purl.org/dc/elements/1.1/"
   xmlns:cc="http://creativecommons.org/ns#"
   xmlns:rdf="http://www.w3.org/1999/02/22-rdf-syntax-ns#"
   xmlns:svg="http://www.w3.org/2000/svg"
   xmlns="http://www.w3.org/2000/svg"
   xmlns:sodipodi="http://sodipodi.sourceforge.net/DTD/sodipodi-0.dtd"
   xmlns:inkscape="http://www.inkscape.org/namespaces/inkscape"
   width="91.298531"
   height="81.083969"
   viewBox="0 0 257.66474 228.83696"
   version="1.1"
   id="svg2"
   inkscape:version="0.91 r13725"
   sodipodi:docname="signage-icon.svg">
  <metadata
     id="metadata62">
    <rdf:RDF>
      <cc:Work
         rdf:about="">
        <dc:format>image/svg+xml</dc:format>
        <dc:type
           rdf:resource="http://purl.org/dc/dcmitype/StillImage" />
        <dc:title></dc:title>
      </cc:Work>
    </rdf:RDF>
  </metadata>
  <defs
     id="defs60">
    <clipPath
       clipPathUnits="userSpaceOnUse"
       id="clipPath3564">
      <path
         inkscape:connector-curvature="0"
         d="m 63,43 512.622,0 0,313.129 L 63,356.129 63,43 Z"
         id="path3566" />
    </clipPath>
  </defs>
  <sodipodi:namedview
     pagecolor="#ffffff"
     bordercolor="#666666"
     borderopacity="1"
     objecttolerance="10"
     gridtolerance="10"
     guidetolerance="10"
     inkscape:pageopacity="0"
     inkscape:pageshadow="2"
     inkscape:window-width="1858"
     inkscape:window-height="1035"
     id="namedview58"
     showgrid="false"
     fit-margin-top="0"
     fit-margin-left="0"
     fit-margin-right="0"
     fit-margin-bottom="0"
     inkscape:zoom="6.4322195"
     inkscape:cx="42.873482"
     inkscape:cy="35.952333"
     inkscape:window-x="62"
     inkscape:window-y="0"
     inkscape:window-maximized="1"
     inkscape:current-layer="svg2"
     showguides="true"
     inkscape:guide-bbox="true" />
  <polygon
     points="315,205 395,375 315,545 235,375 "
     id="polygon10"
     style="fill:none;stroke:#ffffff;stroke-width:40"
     transform="matrix(0.99219369,0,0,0.94910534,28012.92,2797.5213)" />
  <!-- draw the bicycle -->
  <!-- RIGHT -->
  <!-- LANE -->
  <!-- ONLY -->
  <path
     d="m 232.16943,1.1753485 -206.684152,0 c -13.388928,0 -24.3099188,13.5628365 -24.3099188,30.1969205 l 0,166.086181 c 0,16.63408 10.9209908,30.20318 24.3099188,30.20318 l 206.684152,0 c 13.39895,0 24.31995,-13.5691 24.31995,-30.20318 l 0,-166.086181 c 0,-16.634084 -10.921,-30.1969205 -24.31995,-30.1969205"
     style="fill:#ffffff;fill-opacity:1;fill-rule:nonzero;stroke:#000000;stroke-width:2.3507185;stroke-miterlimit:4;stroke-dasharray:none;stroke-opacity:1"
     id="path3654"
     inkscape:connector-curvature="0" />
  <path
     d="m 25.543818,7.2122398 c -1.019192,0.036933 -1.993376,0.1243744 -3.012508,0.2853115 -0.95923,0.2172958 -1.868501,0.471516 -2.807695,0.8065492 -0.914236,0.384714 -1.768557,0.8003699 -2.647811,1.3030129 -0.844281,0.5335196 -1.633661,1.1043126 -2.447941,1.7433646 -0.769401,0.682506 -1.483828,1.377452 -2.203191,2.152977 -1.159059,1.377419 -2.128254,2.767129 -3.057501,4.392699 C 8.8426312,18.888895 8.3929902,19.875385 7.9583391,20.930127 7.5586587,22.009708 7.21894,23.070671 6.9141848,24.206077 6.6494057,25.378718 6.434601,26.50172 6.2597505,27.705381 6.134924,28.971084 6.0698752,30.168527 6.0399123,31.446628 l 0.029912,167.258862 c 0.065081,1.23473 0.1898523,2.40113 0.364692,3.61715 0.2198341,1.17888 0.4796285,2.28328 0.7843787,3.42488 0.3497001,1.1044 0.7243933,2.1405 1.164043,3.20144 0.479584,1.02993 0.9741651,1.97922 1.5237225,2.93472 0.5895235,0.93065 1.1889985,1.78682 1.8384565,2.6493 1.174044,1.37117 2.32308,2.50039 3.681993,3.57993 0.824305,0.60186 1.643626,1.11673 2.512925,1.60696 0.894262,0.4467 1.768528,0.80653 2.697775,1.13538 0.959202,0.28534 1.883407,0.47771 2.867612,0.63288 l 2.038292,0.13017 207.633406,-0.0291 c 0.99419,-0.0991 1.92842,-0.2418 2.9076,-0.45912 0.94923,-0.27289 1.83854,-0.58942 2.76272,-0.9679 0.88928,-0.44051 1.72361,-0.91208 2.5779,-1.45804 0.82429,-0.58941 1.58868,-1.19739 2.36801,-1.89231 0.74439,-0.72593 1.42882,-1.47053 2.12324,-2.27703 1.10911,-1.45808 2.01837,-2.8851 2.88266,-4.56648 0.48461,-1.04235 0.89925,-2.04126 1.29394,-3.12086 0.35471,-1.11678 0.65442,-2.20877 0.91923,-3.35661 0.22462,-1.2036 0.38472,-2.34524 0.50459,-3.56126 l 0.10959,-2.54378 -0.0296,-167.252591 c -0.0798,-1.234754 -0.18969,-2.394958 -0.36469,-3.617202 -0.2197,-1.166462 -0.47963,-2.283245 -0.79435,-3.418685 -0.35472,-1.116747 -0.7294,-2.15291 -1.16403,-3.213872 -0.47461,-1.023728 -0.96418,-1.972975 -1.51873,-2.934696 -0.58953,-0.930629 -1.18906,-1.780635 -1.83848,-2.630643 -1.16904,-1.389817 -2.3231,-2.519038 -3.68197,-3.598546 -0.82934,-0.589448 -1.63867,-1.1106017 -2.50793,-1.606957 -0.90927,-0.4343474 -1.77351,-0.8066186 -2.70775,-1.1354011 -0.95923,-0.2728907 -1.88346,-0.4778067 -2.85764,-0.6328695 l -2.04833,-0.1302224 -206.569257,0 z"
     style="fill:#713907;fill-opacity:1;fill-rule:evenodd;stroke:none"
     id="path3678"
     inkscape:connector-curvature="0" />
  <path
     d="m 140.46009,135.46313 -26.62299,-27.6221 -7.20904,20.73518 c -1.02415,2.82924 -1.95339,4.74637 -4.11161,5.50956 -3.097434,1.09815 -6.334771,-1.15402 -7.209038,-4.98838 l -20.06342,-86.942613 72.485088,9.176358 c 3.19236,0.390856 5.54042,3.952201 5.22569,7.929278 -0.21984,2.655482 -1.56871,4.225196 -3.39721,5.875573 l -15.44223,12.613589 37.3092,38.790045 c 1.59864,1.66904 2.56783,4.28107 2.56783,6.89931 l -0.0549,74.26076 -31.55893,0.0255 0,-57.45296 c 0,-1.8551 -0.74436,-3.70402 -1.9184,-4.80844"
     style="fill:#ffffff;fill-opacity:1;fill-rule:evenodd;stroke:none"
     id="path3710"
     inkscape:connector-curvature="0" />
</svg>
