<?xml version="1.0" encoding="UTF-8" standalone="no"?>
<!-- Generator: Adobe Illustrator 14.0.0, SVG Export Plug-In . SVG Version: 6.00 Build 43363)  -->

<svg
   xmlns:dc="http://purl.org/dc/elements/1.1/"
   xmlns:cc="http://creativecommons.org/ns#"
   xmlns:rdf="http://www.w3.org/1999/02/22-rdf-syntax-ns#"
   xmlns:svg="http://www.w3.org/2000/svg"
   xmlns="http://www.w3.org/2000/svg"
   xmlns:sodipodi="http://sodipodi.sourceforge.net/DTD/sodipodi-0.dtd"
   xmlns:inkscape="http://www.inkscape.org/namespaces/inkscape"
   version="1.1"
   id="Layer_1"
   x="0px"
   y="0px"
   width="33.050842"
   height="31.745167"
   viewBox="0 0 33.050842 31.745167"
   enable-background="new 0 0 300 300"
   xml:space="preserve"
   inkscape:version="0.91 r13725"
   sodipodi:docname="Cross_country_skiing_pictogram.svg"><metadata
     id="metadata17"><rdf:RDF><cc:Work
         rdf:about=""><dc:format>image/svg+xml</dc:format><dc:type
           rdf:resource="http://purl.org/dc/dcmitype/StillImage" /><dc:title></dc:title></cc:Work></rdf:RDF></metadata><defs
     id="defs15" /><sodipodi:namedview
     pagecolor="#ffffff"
     bordercolor="#666666"
     borderopacity="1"
     objecttolerance="10"
     gridtolerance="10"
     guidetolerance="10"
     inkscape:pageopacity="0"
     inkscape:pageshadow="2"
     inkscape:window-width="1168"
     inkscape:window-height="809"
     id="namedview13"
     showgrid="false"
     fit-margin-top="0"
     fit-margin-left="0"
     fit-margin-right="0"
     fit-margin-bottom="0"
     inkscape:zoom="0.78666667"
     inkscape:cx="148.72881"
     inkscape:cy="-87.497838"
     inkscape:window-x="418"
     inkscape:window-y="169"
     inkscape:window-maximized="0"
     inkscape:current-layer="Layer_1" /><g
     id="g3345"
     transform="matrix(0.11016948,0,0,0.13356411,0,-4.1080311)"><path
       id="path3"
       d="m 68.741,110.804 c 4.929,-1.653 8.731,3.471 13.57,3.485 1.592,-0.771 1.701,-2.741 2.405,-4.158 -2.885,-1.837 -5.982,-3.289 -9.112,-4.65 4.106,-4.519 8.546,-8.814 13.572,-12.307 5.328,-3.792 11.884,-4.938 18.004,-6.847 6.446,-1.792 12.797,-4.405 19.586,-4.455 7.003,0.023 14.244,1.173 21.053,-1.015 3.615,-1.302 5.908,-4.607 7.583,-7.888 -1.379,-2.92 -2.404,-6.372 -5.36,-8.117 -5.292,-3.324 -11.809,-3.249 -17.828,-2.999 -14.513,1.176 -27.904,8.264 -38.975,17.412 -8.443,6.83 -15.336,15.396 -20.753,24.774 C 48.312,93.067 24.092,82.182 0,71.033 l 0,6.509 c 22.897,10.638 45.947,20.958 68.932,31.41 -0.047,0.463 -0.143,1.389 -0.191,1.852 z"
       inkscape:connector-curvature="0" /><path
       id="path5"
       d="m 300,151.094 c -4.998,-23.24 -10.986,-46.27 -16.001,-69.509 1.267,-1.27 2.567,-2.5 3.838,-3.771 -1.59,0.291 -3.174,0.591 -4.718,1.054 -0.996,-4.27 -1.566,-8.695 -3.184,-12.781 -0.774,-2.682 -3.867,-1.331 -5.588,-0.53 0.277,5.534 2.166,10.796 3.238,16.195 -7.111,3.303 -14.544,7.04 -22.611,6.559 -7.055,-0.462 -14.084,-1.282 -21.125,-1.907 -9.131,-0.933 -16.793,-7.008 -25.881,-8.063 -4.072,-0.564 -7.599,1.831 -10.73,4.078 -1.408,5.281 1.125,10.828 5.57,13.8 9.93,6.895 22.613,8.044 34.344,6.903 15.039,-1.765 29.705,-7.723 41.352,-17.463 5.946,25.211 11.825,50.438 17.753,75.653 1.218,5.676 2.915,11.262 3.743,17.017 l 0,-27.235 z"
       inkscape:connector-curvature="0" /><path
       id="path7"
       d="m 69.569,258.04 c 23.841,-20.643 47.509,-41.485 70.776,-62.769 5.307,-5.459 10.453,-11.07 15.516,-16.757 6.302,4.062 13.26,6.963 19.606,10.943 2.526,1.508 3.013,4.736 2.88,7.429 -0.504,11.249 -4.406,21.941 -6.096,33.008 -1.908,9.865 -3.318,19.813 -4.652,29.771 4.32,-7.344 9.646,-14.087 13.379,-21.77 5.227,-11.752 10.607,-23.436 15.787,-35.207 3.184,-8.688 6.025,-19.448 0.074,-27.622 -6.835,-8.351 -16.273,-13.954 -24.223,-21.124 -0.237,-1.85 0.019,-3.758 -0.465,-5.569 -1.084,-3.158 -4.039,-5.037 -6.801,-6.583 -3.395,-1.348 -6.967,-0.27 -10.401,0.163 -5.409,-2.388 -10.916,-4.764 -16.844,-5.498 -4.75,0.727 -9.704,3.316 -11.436,8.072 -2.803,6.978 0.383,14.914 5.843,19.636 -9.537,13.609 -19.099,27.204 -28.637,40.814 -11.827,17.432 -22.994,35.295 -34.306,53.063 z"
       inkscape:connector-curvature="0" /><path
       id="path9"
       d="m 4.384,268.381 c 81.53,-0.018 163.06,0.02 244.587,0.002 5,0.14 10.129,0.096 14.932,-1.482 4.64,-1.774 9.164,-5.52 9.621,-10.785 -1.254,-0.851 -2.492,-2.034 -4.145,-1.669 -2.393,1.865 -3.564,5.167 -6.592,6.211 -3.73,1.404 -7.795,1.49 -11.729,1.693 -10.166,0.123 -20.336,-0.097 -30.5,0.107 1.547,-1.642 2.496,-3.702 3.09,-5.856 -1.073,-1.112 -2.209,-2.374 -3.916,-2.277 -2.687,1.599 -3.703,5.142 -6.752,6.258 -4.111,1.531 -8.6,1.553 -12.931,1.795 -65.223,0.006 -130.447,0 -195.671,0.003 0.003,1.996 0.005,3.997 0.006,6 z"
       inkscape:connector-curvature="0" /><circle
       id="circle11"
       r="21.6"
       cy="52.356998"
       cx="187.26601" /></g></svg>