<?xml version="1.0" encoding="UTF-8" standalone="no"?>
<!-- Created with Inkscape (http://www.inkscape.org/) -->

<svg
   xmlns:dc="http://purl.org/dc/elements/1.1/"
   xmlns:cc="http://creativecommons.org/ns#"
   xmlns:rdf="http://www.w3.org/1999/02/22-rdf-syntax-ns#"
   xmlns:svg="http://www.w3.org/2000/svg"
   xmlns="http://www.w3.org/2000/svg"
   xmlns:sodipodi="http://sodipodi.sourceforge.net/DTD/sodipodi-0.dtd"
   xmlns:inkscape="http://www.inkscape.org/namespaces/inkscape"
   width="210mm"
   height="297mm"
   viewBox="0 0 100 100"
   id="svg3558"
   version="1.1"
   inkscape:version="0.91 r13725"
   sodipodi:docname="tctprototype-logo-teal-larger-font.svg"
   inkscape:export-filename="/Users/JJ/Documents/Projects/AppChallenge/Prototype/trail-bootstrap/lib/images/test-icon.png"
   inkscape:export-xdpi="32.302067"
   inkscape:export-ydpi="32.302067">
  <defs
     id="defs3560" />
  <sodipodi:namedview
     id="base"
     pagecolor="#ffffff"
     bordercolor="#666666"
     borderopacity="1.0"
     inkscape:pageopacity="0.0"
     inkscape:pageshadow="2"
     inkscape:zoom="1.979899"
     inkscape:cx="202.45011"
     inkscape:cy="925.42142"
     inkscape:document-units="px"
     inkscape:current-layer="layer1"
     showgrid="false"
     inkscape:window-width="1686"
     inkscape:window-height="918"
     inkscape:window-x="104"
     inkscape:window-y="93"
     inkscape:window-maximized="0" />
  <metadata
     id="metadata3563">
    <rdf:RDF>
      <cc:Work
         rdf:about="">
        <dc:format>image/svg+xml</dc:format>
        <dc:type
           rdf:resource="http://purl.org/dc/dcmitype/StillImage" />
        <dc:title></dc:title>
      </cc:Work>
    </rdf:RDF>
  </metadata>
  <g
     inkscape:label="Layer 1"
     inkscape:groupmode="layer"
     id="layer1">
    <g
       id="g3420"
       transform="matrix(0.03050441,0,0,0.03008626,2.532905,-18.234299)"
       inkscape:export-xdpi="32.302067"
       inkscape:export-ydpi="32.302067">
      <circle
         id="circle3422"
         r="243"
         cy="607.40002"
         cx="375"
         class="st9"
         style="fill:#33cccc;stroke:#ffffff;stroke-width:5;stroke-miterlimit:10" />
      <text
         id="text3424"
         class="st1 st4 st11"
         style="font-size:120px;font-family:CenturyGothic-Bold;fill:#ffffff"
         x="209.20465"
         y="552.02637">Ca</text>
      <text
         id="text3426"
         class="st1 st4 st11"
         style="font-size:120px;font-family:CenturyGothic-Bold;fill:#ffffff"
         x="370.33206"
         y="651.7774">na</text>
      <text
         id="text3428"
         class="st1 st4 st11"
         style="font-size:120px;font-family:CenturyGothic-Bold;fill:#ffffff"
         x="309.45169"
         y="764.95245">da</text>
      <g
         id="g3430"
         transform="matrix(1,0,0,0.98085779,0,9.8430974)">
        <g
           id="g3432">
          <path
             id="path3434"
             d="m 382.38311,511.59872 c 21.1534,-0.4 42.1912,-1.2 63.34459,-2.4 19.76629,-1.1 39.53258,-3.5 59.41446,-3.6 17.22325,-0.1 34.09973,3.5 44.04067,16.6 9.24739,12.1 12.25279,28.1 9.94094,42.4 -2.65862,16.2 -14.44904,31.3 -33.63736,35 -8.66943,1.7 -4.97047,13.3 3.69895,11.6 41.72883,-8.1 52.36332,-52.6 38.95461,-83 -6.81994,-15.5 -19.88188,-27.7 -38.60783,-32.2 -20.80662,-4.9 -43.23153,-1.3 -64.38493,0.1 -27.51097,1.8 -55.02194,2.9 -82.53291,3.5 -9.24739,0.2 -9.24739,12.2 -0.23119,12 l 0,0 z"
             class="st1"
             inkscape:connector-curvature="0"
             style="fill:#ffffff" />
        </g>
      </g>
      <g
         id="g3436">
        <g
           id="g3438">
          <path
             id="path3440"
             d="m 360.94441,618.1 c -23.29255,0.5 -46.5851,-3.2 -69.87764,-1.5 -20.07125,1.4 -38.40793,7 -53.64722,17.7 -26.76164,18.7 -42.8682,55.8 -19.69955,80.9 13.50473,14.7 36.79728,18.7 58.23138,19.1 9.54003,0.2 9.54003,-11.8 0,-12 -15.48706,-0.3 -33.20427,-2.3 -44.23106,-12.1 -10.779,-9.6 -11.77018,-24.4 -7.92939,-36.4 8.17718,-26 36.79728,-43.5 69.50597,-45.3 22.54917,-1.2 45.09834,2.1 67.64751,1.7 9.54004,-0.3 9.54004,-12.3 0,-12.1 l 0,0 z"
             class="st1"
             inkscape:connector-curvature="0"
             style="fill:#ffffff" />
        </g>
      </g>
    </g>
  </g>
</svg>
